<mxfile host="app.diagrams.net" modified="2023-11-03T09:27:37.788Z" agent="Mozilla/5.0 (Macintosh; Intel Mac OS X 10_15_7) AppleWebKit/537.36 (KHTML, like Gecko) Chrome/118.0.0.0 Safari/537.36" etag="XQ-_zOHccTgDT88bniHN" version="22.0.8" type="github">
  <diagram name="第 1 页" id="dJJxxoPswBF0W_WzhjrB">
    <mxGraphModel dx="1224" dy="692" grid="1" gridSize="10" guides="1" tooltips="1" connect="1" arrows="1" fold="1" page="1" pageScale="1" pageWidth="827" pageHeight="1169" math="0" shadow="0">
      <root>
        <mxCell id="0" />
        <mxCell id="1" parent="0" />
        <mxCell id="IN5CaGdSEtRBpbSHd2bQ-1" value="港台 1.5&amp;nbsp;&lt;div class=&quot;lake-content&quot;&gt;product-revmap&amp;nbsp;&lt;/div&gt;" style="rounded=1;whiteSpace=wrap;html=1;labelBackgroundColor=none;fillColor=#dae8fc;strokeColor=#6c8ebf;" vertex="1" parent="1">
          <mxGeometry x="280" y="160" width="270" height="60" as="geometry" />
        </mxCell>
        <mxCell id="IN5CaGdSEtRBpbSHd2bQ-2" value="业务方" style="text;html=1;align=center;verticalAlign=middle;resizable=0;points=[];autosize=1;strokeColor=none;fillColor=none;labelBackgroundColor=none;fontColor=#46495D;" vertex="1" parent="1">
          <mxGeometry x="180" y="175" width="60" height="30" as="geometry" />
        </mxCell>
        <mxCell id="IN5CaGdSEtRBpbSHd2bQ-3" value="http" style="rounded=1;whiteSpace=wrap;html=1;labelBackgroundColor=none;fillColor=#ffe6cc;strokeColor=#d79b00;" vertex="1" parent="1">
          <mxGeometry x="280" y="260" width="270" height="60" as="geometry" />
        </mxCell>
        <mxCell id="IN5CaGdSEtRBpbSHd2bQ-4" value="WEB" style="text;html=1;align=center;verticalAlign=middle;resizable=0;points=[];autosize=1;strokeColor=none;fillColor=none;labelBackgroundColor=none;fontColor=#46495D;" vertex="1" parent="1">
          <mxGeometry x="185" y="275" width="50" height="30" as="geometry" />
        </mxCell>
        <mxCell id="IN5CaGdSEtRBpbSHd2bQ-17" style="edgeStyle=orthogonalEdgeStyle;rounded=0;orthogonalLoop=1;jettySize=auto;html=1;entryX=0;entryY=0.5;entryDx=0;entryDy=0;labelBackgroundColor=none;strokeColor=#788AA3;fontColor=default;" edge="1" parent="1" source="IN5CaGdSEtRBpbSHd2bQ-5" target="IN5CaGdSEtRBpbSHd2bQ-7">
          <mxGeometry relative="1" as="geometry" />
        </mxCell>
        <mxCell id="IN5CaGdSEtRBpbSHd2bQ-18" style="edgeStyle=orthogonalEdgeStyle;rounded=0;orthogonalLoop=1;jettySize=auto;html=1;entryX=0;entryY=0.5;entryDx=0;entryDy=0;labelBackgroundColor=none;strokeColor=#788AA3;fontColor=default;" edge="1" parent="1" source="IN5CaGdSEtRBpbSHd2bQ-5" target="IN5CaGdSEtRBpbSHd2bQ-8">
          <mxGeometry relative="1" as="geometry" />
        </mxCell>
        <mxCell id="IN5CaGdSEtRBpbSHd2bQ-5" value="推荐系统" style="rounded=1;whiteSpace=wrap;html=1;labelBackgroundColor=none;fillColor=#f8cecc;strokeColor=#b85450;" vertex="1" parent="1">
          <mxGeometry x="280" y="375" width="270" height="85" as="geometry" />
        </mxCell>
        <mxCell id="IN5CaGdSEtRBpbSHd2bQ-6" value="在线服务" style="text;html=1;align=center;verticalAlign=middle;resizable=0;points=[];autosize=1;strokeColor=none;fillColor=none;labelBackgroundColor=none;fontColor=#46495D;" vertex="1" parent="1">
          <mxGeometry x="180" y="405" width="70" height="30" as="geometry" />
        </mxCell>
        <mxCell id="IN5CaGdSEtRBpbSHd2bQ-7" value="排序服务" style="rounded=1;whiteSpace=wrap;html=1;labelBackgroundColor=none;fillColor=#B2C9AB;strokeColor=#788AA3;fontColor=#46495D;" vertex="1" parent="1">
          <mxGeometry x="630" y="347.5" width="120" height="60" as="geometry" />
        </mxCell>
        <mxCell id="IN5CaGdSEtRBpbSHd2bQ-8" value="特征服务" style="rounded=1;whiteSpace=wrap;html=1;labelBackgroundColor=none;fillColor=#B2C9AB;strokeColor=#788AA3;fontColor=#46495D;" vertex="1" parent="1">
          <mxGeometry x="630" y="432.5" width="120" height="60" as="geometry" />
        </mxCell>
        <mxCell id="IN5CaGdSEtRBpbSHd2bQ-19" style="edgeStyle=orthogonalEdgeStyle;rounded=0;orthogonalLoop=1;jettySize=auto;html=1;entryX=0;entryY=0.5;entryDx=0;entryDy=0;labelBackgroundColor=none;strokeColor=#788AA3;fontColor=default;" edge="1" parent="1" source="IN5CaGdSEtRBpbSHd2bQ-9" target="IN5CaGdSEtRBpbSHd2bQ-11">
          <mxGeometry relative="1" as="geometry" />
        </mxCell>
        <mxCell id="IN5CaGdSEtRBpbSHd2bQ-20" style="edgeStyle=orthogonalEdgeStyle;rounded=0;orthogonalLoop=1;jettySize=auto;html=1;entryX=0;entryY=0.5;entryDx=0;entryDy=0;labelBackgroundColor=none;strokeColor=#788AA3;fontColor=default;" edge="1" parent="1" source="IN5CaGdSEtRBpbSHd2bQ-9" target="IN5CaGdSEtRBpbSHd2bQ-12">
          <mxGeometry relative="1" as="geometry" />
        </mxCell>
        <mxCell id="IN5CaGdSEtRBpbSHd2bQ-9" value="tahm 数据同步" style="rounded=1;whiteSpace=wrap;html=1;labelBackgroundColor=none;fillColor=#e1d5e7;strokeColor=#9673a6;" vertex="1" parent="1">
          <mxGeometry x="279" y="560" width="270" height="80" as="geometry" />
        </mxCell>
        <mxCell id="IN5CaGdSEtRBpbSHd2bQ-10" value="数据处理" style="text;html=1;align=center;verticalAlign=middle;resizable=0;points=[];autosize=1;strokeColor=none;fillColor=none;labelBackgroundColor=none;fontColor=#46495D;" vertex="1" parent="1">
          <mxGeometry x="175" y="590" width="70" height="30" as="geometry" />
        </mxCell>
        <mxCell id="IN5CaGdSEtRBpbSHd2bQ-11" value="es" style="rounded=1;whiteSpace=wrap;html=1;labelBackgroundColor=none;fillColor=#B2C9AB;strokeColor=#788AA3;fontColor=#46495D;" vertex="1" parent="1">
          <mxGeometry x="630" y="530" width="120" height="60" as="geometry" />
        </mxCell>
        <mxCell id="IN5CaGdSEtRBpbSHd2bQ-12" value="redis" style="rounded=1;whiteSpace=wrap;html=1;labelBackgroundColor=none;fillColor=#B2C9AB;strokeColor=#788AA3;fontColor=#46495D;" vertex="1" parent="1">
          <mxGeometry x="630" y="610" width="120" height="60" as="geometry" />
        </mxCell>
        <mxCell id="IN5CaGdSEtRBpbSHd2bQ-14" value="数据源" style="text;html=1;align=center;verticalAlign=middle;resizable=0;points=[];autosize=1;strokeColor=none;fillColor=none;labelBackgroundColor=none;fontColor=#46495D;" vertex="1" parent="1">
          <mxGeometry x="175" y="850" width="60" height="30" as="geometry" />
        </mxCell>
        <mxCell id="IN5CaGdSEtRBpbSHd2bQ-15" value="kafka" style="rounded=1;whiteSpace=wrap;html=1;labelBackgroundColor=none;fillColor=#f0a30a;strokeColor=#BD7000;fontColor=#000000;" vertex="1" parent="1">
          <mxGeometry x="280" y="710" width="280" height="60" as="geometry" />
        </mxCell>
        <mxCell id="IN5CaGdSEtRBpbSHd2bQ-16" value="消息中间件" style="text;html=1;align=center;verticalAlign=middle;resizable=0;points=[];autosize=1;strokeColor=none;fillColor=none;labelBackgroundColor=none;fontColor=#46495D;" vertex="1" parent="1">
          <mxGeometry x="170" y="725" width="80" height="30" as="geometry" />
        </mxCell>
        <mxCell id="IN5CaGdSEtRBpbSHd2bQ-21" value="hive" style="rounded=1;whiteSpace=wrap;html=1;strokeColor=#788AA3;fontColor=#46495D;fillColor=#B2C9AB;" vertex="1" parent="1">
          <mxGeometry x="280" y="835" width="280" height="60" as="geometry" />
        </mxCell>
      </root>
    </mxGraphModel>
  </diagram>
</mxfile>
